<svg xmlns="http://www.w3.org/2000/svg" xmlns:xlink="http://www.w3.org/1999/xlink" viewBox="0 0 502.7 503.8"><defs><style>.cls-1{fill:url(#linear-gradient);}.cls-2{fill:url(#linear-gradient-2);}</style><linearGradient id="linear-gradient" x1="35.48" y1="305.66" x2="151.5" y2="305.66" gradientUnits="userSpaceOnUse"><stop offset="0" stop-color="#323c32"/><stop offset="1" stop-color="#326e32"/></linearGradient><linearGradient id="linear-gradient-2" x1="415.42" y1="40.32" x2="483.77" y2="40.32" xlink:href="#linear-gradient"/></defs><title>Asset 20</title><g id="Layer_2" data-name="Layer 2"><g id="Layer_1-2" data-name="Layer 1"><path d="M39.4,494H29V256.2a10.1,10.1,0,0,0,5-8.7,10.3,10.3,0,1,0-20.5,0,10.1,10.1,0,0,0,5,8.7V494H8.2A19.8,19.8,0,0,0,0,503.8H47.6A19.8,19.8,0,0,0,39.4,494Z"/><polygon class="cls-1" points="124.4 305.7 151.5 349.2 35.5 349.2 35.5 262.1 151.5 262.1 124.4 305.7"/><path d="M417.3,151.2h-6.1V11.2a6,6,0,1,0-6.2,0v140h-6.1a11.9,11.9,0,0,0-4.8,5.9h28.1A12.6,12.6,0,0,0,417.3,151.2Z"/><polygon class="cls-2" points="467.8 40.3 483.8 66 415.4 66 415.4 14.7 483.8 14.7 467.8 40.3"/><path d="M64.3,472.8h-.5a15.3,15.3,0,0,0,5,30.1c7.1-1.2,14.1-2.3,21.1-3.6l-4.4-29.5Z"/><path d="M97.3,468.1l4.4,29.2c12.1-2.1,24.2-4.2,36.2-6.5l-4.2-28Z"/><path d="M166.7,457.7,145.5,461l4.2,27.7,21.7-4.1,14.6-2.8-4-26.6Z"/><path d="M193.7,453.3l4,26.2c12.2-2.4,24.4-4.9,36.5-7.5l-4.5-25Q211.7,450.3,193.7,453.3Z"/><path d="M268.5,439.8l-27.1,5.1,4.5,24.6,27.6-6.1,5.6-1.3-4.8-23.5Z"/><path d="M285.4,436.3l4.7,23.2c11.1-2.6,22.2-5.3,33.2-8.2l-5.2-22C307.3,431.8,296.3,434.1,285.4,436.3Z"/><path d="M329.2,426.8l5,21.6c11.1-2.9,22.2-6,33.2-9.3l-5.6-20.4C351,421.6,340.1,424.2,329.2,426.8Z"/><path d="M372.7,415.7l5.5,20.2c11.2-3.5,22.3-7.1,33.3-11.1l-6.1-18.9C394.6,409.5,383.7,412.7,372.7,415.7Z"/><path d="M441.2,392.4c-7.6,3.4-15.5,6.5-23.5,9.3l-1.6.6,6,18.5h0l2.4-1c8.3-3.2,16.4-6.6,24.5-10.5l5.1-2.5-7.9-16.6Z"/><path d="M473.1,374.5a88.7,88.7,0,0,1-9.8,6.7c-2.6,1.6-5.4,3.2-8.1,4.6l7.7,16.4c3.3-1.9,6.6-3.8,9.9-5.9a120.8,120.8,0,0,0,11.3-8.3,74.5,74.5,0,0,0,8.6-8.3l-12.6-11.6A48,48,0,0,1,473.1,374.5Z"/><path d="M365.7,263.6l-.8-.4c-6.6-3-13-6.1-19.4-9.3l-7.2,8.4c7,3.8,14,7.4,21,10.9Z"/><path d="M332.7,259.2l7.1-8.3a216.6,216.6,0,0,1-19.3-11.3l-7.1,7.2.8.5A214.9,214.9,0,0,0,332.7,259.2Z"/><path d="M301.8,223.1a23.9,23.9,0,0,1-1.3-2.1l-8.4,3.5c.7,1.3,1.5,2.6,2.3,3.8a62.4,62.4,0,0,0,9.2,10.5l4.8,4.1,6.9-6.9A66.5,66.5,0,0,1,301.8,223.1Z"/><path d="M289.7,218.7l8.2-3.5a11.7,11.7,0,0,1-.5-2,21.8,21.8,0,0,1-.1-5.1,18.3,18.3,0,0,1,.6-2.5,18.6,18.6,0,0,1,1-2.5,27.1,27.1,0,0,1,2.1-3.7l-8.5-1.7-1,1.7a25.3,25.3,0,0,0-2.7,15.1A31.5,31.5,0,0,0,289.7,218.7Z"/><path d="M315.5,186.6l2.7-1.6-4.1-5.9-2.3,1.3a65,65,0,0,0-11.2,7.9,47.5,47.5,0,0,0-4,3.8l9.2,1.9A65.3,65.3,0,0,1,315.5,186.6Z"/><path d="M338.2,175.4l3.7-1.4-3.6-5.3h0l-2.3.8a162.5,162.5,0,0,0-16.2,6.7l4,5.7C328.5,179.6,333.3,177.4,338.2,175.4Z"/><path d="M362.5,167.1,366,166l-3.2-4.6c-6.1,1.6-12.2,3.3-18.3,5.2l3.5,5.2C352.8,170.1,357.6,168.6,362.5,167.1Z"/><path d="M387.4,160.3h.1a2.1,2.1,0,0,0,1.5-2.6,2.1,2.1,0,0,0-2.5-1.7c-5.7,1.2-11.5,2.4-17.2,3.8l3.2,4.4C377.4,162.8,382.4,161.5,387.4,160.3Z"/><path d="M396.5,277.2l-23.6-10.4-6.5,9.9q12,5.9,24,11.4Z"/><path d="M420.6,302.6l6.5-11.9-14.8-6.6-8.7-3.8-6.1,11.2,9.4,4.4Z"/><path d="M456.8,305.4c-7.5-4-15-7.8-22.6-11.4l-6.6,12.1c7.3,3.7,14.6,7.6,21.6,11.7Z"/><path d="M462.8,326.4l6.2,4.5,19.7-3.3a84.3,84.3,0,0,0-6.4-5.7c-3.6-2.9-7.4-5.5-11.2-8l-6.7-4.2-7.8,12.6Z"/><path d="M500.9,345.4a38,38,0,0,0-4.6-9l-17.9,3a38.1,38.1,0,0,1,7.2,11.2,15.3,15.3,0,0,1,.7,4.1,10.7,10.7,0,0,1-.5,4l-.3.9,12.9,11.9.4-.7a35,35,0,0,0,3.1-8A30.3,30.3,0,0,0,500.9,345.4Z"/></g></g></svg>